<?xml version="1.0" encoding="utf-8"?>
<!-- Generator: Adobe Illustrator 25.2.0, SVG Export Plug-In . SVG Version: 6.00 Build 0)  -->
<svg version="1.1" id="Layer_1" xmlns="http://www.w3.org/2000/svg" xmlns:xlink="http://www.w3.org/1999/xlink" x="0px" y="0px"
	 viewBox="0 0 24 24" style="enable-background:new 0 0 24 24;" xml:space="preserve">
<style type="text/css">
	.st0{fill:none;}
	.st1{fill:none;stroke:#055FFC;stroke-width:1.5;stroke-linecap:round;stroke-linejoin:round;}
	.st2{fill:#055FFC;}
</style>
<g id="vuesax_bold_convert-card" transform="translate(-556 -316)">
	<g id="convert-card">
		<path id="Vector" class="st0" d="M556,316h24v24h-24V316z"/>
		<path id="Vector-2" class="st1" d="M578,331c0,3.9-3.1,7-7,7l1-1.8"/>
		<path id="Vector-3" class="st1" d="M558,325c0-3.9,3.1-7,7-7l-1,1.8"/>
		<path id="Vector-4" class="st2" d="M578,320.2v0.1c0,0.3-0.2,0.5-0.5,0.5h-9c-0.3,0-0.5-0.2-0.5-0.5v-0.1c0-1.8,0.4-2.2,2.2-2.2
			h5.6C577.6,318,578,318.4,578,320.2z"/>
		<path id="Vector-5" class="st2" d="M568.5,321.8c-0.3,0-0.5,0.2-0.5,0.5v2c0,1.8,0.4,2.2,2.2,2.2h5.6c1.8,0,2.2-0.4,2.2-2.2v-2
			c0-0.3-0.2-0.5-0.5-0.5H568.5z"/>
		<path id="Vector-6" class="st2" d="M568,331.7v0.1c0,0.3-0.2,0.5-0.5,0.5h-9c-0.3,0-0.5-0.2-0.5-0.5v-0.1c0-1.8,0.4-2.2,2.2-2.2
			h5.6C567.6,329.5,568,329.9,568,331.7z"/>
		<path id="Vector-7" class="st2" d="M558.5,333.3c-0.3,0-0.5,0.2-0.5,0.5v2c0,1.8,0.4,2.2,2.2,2.2h5.6c1.8,0,2.2-0.4,2.2-2.2v-2
			c0-0.3-0.2-0.5-0.5-0.5H558.5z"/>
	</g>
</g>
</svg>
