<?xml version="1.0" encoding="utf-8"?>
<!-- Generator: Adobe Illustrator 25.2.0, SVG Export Plug-In . SVG Version: 6.00 Build 0)  -->
<svg version="1.1" id="Layer_1" xmlns="http://www.w3.org/2000/svg" xmlns:xlink="http://www.w3.org/1999/xlink" x="0px" y="0px"
	 viewBox="0 0 592 597" style="enable-background:new 0 0 592 597;" xml:space="preserve">
<style type="text/css">
	.st0{fill:#F0B90B;}
</style>
<path class="st0" d="M150.9,305l-60.2,60.2L30.4,305l60.2-60.2L150.9,305z M297.1,158.8L400.3,262l60.2-60.2L297.1,38.3L133.6,201.8
	l60.2,60.2L297.1,158.8z M503.4,244.8L443.3,305l60.2,60.2l60.2-60.2L503.4,244.8z M297.1,451.2L193.9,348l-60.2,60.2l163.3,163.5
	l163.3-163.5L400.3,348L297.1,451.2z M297.1,365.2l60.2-60.2l-60.2-60.2L236.8,305L297.1,365.2z"/>
</svg>
