<svg xmlns="http://www.w3.org/2000/svg" width="30" height="30" viewBox="0 0 30 30">
  <g id="Group_103" data-name="Group 103" transform="translate(-370 -153)">
    <circle id="Ellipse_27" data-name="Ellipse 27" cx="15" cy="15" r="15" transform="translate(370 153)" fill="#f3ba2f"/>
    <g id="Layer_2" data-name="Layer 2" transform="translate(374.773 157.773)">
      <g id="Layer_1" data-name="Layer 1">
        <path id="Path_27" data-name="Path 27" d="M6.255,8.6l3.972-3.972L14.2,8.6l2.311-2.311L10.227,0,3.944,6.284,6.255,8.6M0,10.227,2.311,7.916l2.311,2.311L2.311,12.538ZM6.255,11.86l3.972,3.972L14.2,11.858l2.313,2.31h0l-6.286,6.285L3.944,14.171l0,0,2.315-2.308m9.577-1.631,2.311-2.311,2.311,2.311L18.143,12.54Z" fill="#fff"/>
        <path id="Path_28" data-name="Path 28" d="M967.881,965.535h0l-2.345-2.346-1.734,1.733h0l-.2.2-.411.411,0,0,0,0,2.343,2.344,2.345-2.345h0" transform="translate(-955.309 -955.309)" fill="#fff"/>
      </g>
    </g>
  </g>
</svg>
