<svg xmlns="http://www.w3.org/2000/svg" width="24" height="24" viewBox="0 0 24 24">
  <g id="vuesax_bold_favorite-chart" data-name="vuesax/bold/favorite-chart" transform="translate(-620 -252)">
    <g id="favorite-chart">
      <path id="Vector" d="M0,0H24V24H0Z" transform="translate(620 252)" fill="none" opacity="0"/>
      <path id="Vector-2" data-name="Vector" d="M5.12.938l.32.65a1.42,1.42,0,0,0,.91.68l.43.07c1.31.22,1.61,1.18.68,2.12l-.4.4a1.412,1.412,0,0,0-.33,1.17l.05.24c.36,1.58-.48,2.19-1.85,1.36l-.29-.18a1.379,1.379,0,0,0-1.28,0l-.29.18c-1.38.83-2.21.22-1.85-1.36l.05-.24a1.422,1.422,0,0,0-.33-1.17l-.4-.4c-.93-.95-.63-1.9.68-2.12l.43-.07a1.4,1.4,0,0,0,.91-.68l.32-.65C3.5-.312,4.5-.312,5.12.938Z" transform="translate(634 266.003)" fill="#055ffc"/>
      <path id="Vector-3" data-name="Vector" d="M14.19,0H5.81C2.17,0,0,2.17,0,5.81v8.38C0,17.83,2.17,20,5.81,20h5.28a.619.619,0,0,0,.56-.71,4.093,4.093,0,0,1,.1-1.35.214.214,0,0,0-.06-.21l-.22-.22a2.824,2.824,0,0,1-.86-2.85,2.819,2.819,0,0,1,2.36-1.8l.3-.05.27-.54A2.81,2.81,0,0,1,16,10.5a2.81,2.81,0,0,1,2.46,1.77l.15.31a.507.507,0,0,0,.37.28l.27.06a.614.614,0,0,0,.75-.56V5.81C20,2.17,17.83,0,14.19,0Zm.07,6.96L11.95,9.94a1.752,1.752,0,0,1-2.46.3L7.66,8.82a.219.219,0,0,0-.19-.05.222.222,0,0,0-.17.1L4.92,11.96a.758.758,0,0,1-.6.29.736.736,0,0,1-.46-.16.749.749,0,0,1-.14-1.05L6.1,7.95a1.758,1.758,0,0,1,1.17-.67,1.735,1.735,0,0,1,1.3.36L10.4,9.08a.249.249,0,0,0,.19.05.222.222,0,0,0,.17-.1l2.31-2.98a.738.738,0,0,1,1.05-.13A.729.729,0,0,1,14.26,6.96Z" transform="translate(622 254)" fill="#055ffc"/>
    </g>
  </g>
</svg>
