<svg xmlns="http://www.w3.org/2000/svg" width="16" height="16" viewBox="0 0 16 16">
  <g id="vuesax_bold_wallet-minus" data-name="vuesax/bold/wallet-minus" transform="translate(-748 -508)">
    <g id="wallet-minus" transform="translate(748 508)">
      <path id="Vector" d="M3.993.136,2.387,3.876H.78A3.775,3.775,0,0,0,0,3.949l.667-1.6.027-.06.04-.107a1.057,1.057,0,0,1,.053-.12C1.56.269,2.427-.291,3.993.136Z" transform="translate(3.967 1.337)" fill="#71727e"/>
      <path id="Vector-2" data-name="Vector" d="M5.407,3.713l-.013-.007a4.458,4.458,0,0,0-1.22-.173H0L1.5.047,1.52,0c.093.033.193.08.293.113l1.473.62a4.411,4.411,0,0,1,1.747,1.12c.06.08.113.153.167.24a1.014,1.014,0,0,1,.133.287.892.892,0,0,1,.06.173A2.336,2.336,0,0,1,5.407,3.713Z" transform="translate(7.08 1.68)" fill="#71727e"/>
      <path id="Vector-3" data-name="Vector" d="M10.7.133A3.371,3.371,0,0,0,9.76,0H3.253a3.184,3.184,0,0,0-1.28.26A3.262,3.262,0,0,0,0,3.253v1.3a3.766,3.766,0,0,0,.033.473,3.276,3.276,0,0,0,3.4,3.393,3.6,3.6,0,0,0,.473.033h5.2c2.467,0,3.767-1.173,3.893-3.507.007-.127.013-.26.013-.393v-1.3A3.267,3.267,0,0,0,10.7.133ZM8.173,4.953H4.84a.5.5,0,0,1,0-1H8.173a.5.5,0,0,1,0,1Z" transform="translate(1.493 6.213)" fill="#71727e"/>
      <path id="Vector-4" data-name="Vector" d="M0,0H16V16H0Z" fill="none" opacity="0"/>
    </g>
  </g>
</svg>
