<?xml version="1.0" encoding="utf-8"?>
<!-- Generator: Adobe Illustrator 25.2.0, SVG Export Plug-In . SVG Version: 6.00 Build 0)  -->
<svg version="1.1" id="Layer_1" xmlns="http://www.w3.org/2000/svg" xmlns:xlink="http://www.w3.org/1999/xlink" x="0px" y="0px"
	 viewBox="0 0 24 24" style="enable-background:new 0 0 24 24;" xml:space="preserve">
<style type="text/css">
	.st0{fill:#055FFC;}
	.st1{fill:none;}
</style>
<g id="vuesax_bold_setting-2" transform="translate(-300 -190)">
	<g id="setting-2">
		<path id="Vector" class="st0" d="M320.1,199.2c-1.8,0-2.6-1.3-1.6-2.8c0.5-0.9,0.2-2.1-0.7-2.6l-1.7-1c-0.8-0.5-1.8-0.2-2.3,0.6
			l-0.1,0.2c-0.9,1.6-2.4,1.6-3.3,0l-0.1-0.2c-0.4-0.8-1.5-1.1-2.2-0.6c0,0,0,0,0,0l-1.7,1c-0.9,0.5-1.2,1.7-0.7,2.6
			c0.9,1.6,0.2,2.8-1.6,2.8c-1,0-1.9,0.9-1.9,1.9v1.8c0,1,0.9,1.9,1.9,1.9c1.8,0,2.6,1.3,1.6,2.9c-0.5,0.9-0.2,2.1,0.7,2.6l1.7,1
			c0.8,0.5,1.8,0.2,2.3-0.6l0.1-0.2c0.9-1.6,2.4-1.6,3.3,0l0.1,0.2c0.5,0.8,1.5,1.1,2.3,0.6l1.7-1c0.9-0.5,1.2-1.7,0.7-2.6
			c-0.9-1.6-0.2-2.9,1.6-2.9c1,0,1.9-0.9,1.9-1.9v-1.8C322,200.1,321.1,199.2,320.1,199.2z M312,205.2c-1.8,0-3.2-1.5-3.2-3.2
			c0-1.8,1.5-3.2,3.2-3.2s3.2,1.5,3.2,3.2l0,0C315.2,203.8,313.8,205.2,312,205.2z"/>
		<path id="Vector-2" class="st1" d="M324,214h-24v-24h24V214z"/>
	</g>
</g>
</svg>
