<svg xmlns="http://www.w3.org/2000/svg" width="24" height="24" viewBox="0 0 24 24">
  <g id="vuesax_bold_danger" data-name="vuesax/bold/danger" transform="translate(-428 -252)">
    <g id="danger">
      <path id="Vector" d="M20.2,13.92,13.8,2.4A3.987,3.987,0,0,0,10.44,0,3.987,3.987,0,0,0,7.08,2.4L.68,13.92a3.96,3.96,0,0,0-.25,3.99,3.936,3.936,0,0,0,3.61,1.72h12.8a3.936,3.936,0,0,0,3.61-1.72A3.959,3.959,0,0,0,20.2,13.92ZM9.69,7a.75.75,0,0,1,1.5,0v5a.75.75,0,1,1-1.5,0Zm1.46,8.71-.15.12a.757.757,0,0,1-.18.09.6.6,0,0,1-.19.06,1.225,1.225,0,0,1-.19.02,1.5,1.5,0,0,1-.2-.02.636.636,0,0,1-.18-.06.757.757,0,0,1-.18-.09l-.15-.12a1.014,1.014,0,0,1,0-1.42l.15-.12a.757.757,0,0,1,.18-.09.636.636,0,0,1,.18-.06.856.856,0,0,1,.39,0,.6.6,0,0,1,.19.06.757.757,0,0,1,.18.09l.15.12a1.014,1.014,0,0,1,0,1.42Z" transform="translate(429.56 254)" fill="#f0b90b"/>
      <path id="Vector-2" data-name="Vector" d="M0,0H24V24H0Z" transform="translate(452 276) rotate(180)" fill="none" opacity="0"/>
    </g>
  </g>
</svg>
