<svg xmlns="http://www.w3.org/2000/svg" width="24" height="24" viewBox="0 0 24 24">
  <g id="vuesax_bold_add-circle" data-name="vuesax/bold/add-circle" transform="translate(-108 -252)">
    <g id="add-circle">
      <path id="Vector" d="M10,0A10,10,0,1,0,20,10,10.016,10.016,0,0,0,10,0Zm4,10.75H10.75V14a.75.75,0,0,1-1.5,0V10.75H6a.75.75,0,0,1,0-1.5H9.25V6a.75.75,0,0,1,1.5,0V9.25H14a.75.75,0,0,1,0,1.5Z" transform="translate(110 254)" fill="#89f4ab"/>
      <path id="Vector-2" data-name="Vector" d="M0,0H24V24H0Z" transform="translate(132 276) rotate(180)" fill="none" opacity="0"/>
    </g>
  </g>
</svg>
