<svg xmlns="http://www.w3.org/2000/svg" width="24" height="24" viewBox="0 0 24 24">
  <g id="vuesax_bold_money-4" data-name="vuesax/bold/money-4" transform="translate(-620 -252)">
    <g id="money-4">
      <path id="Vector" d="M0,0H24V24H0Z" transform="translate(620 252)" fill="none" opacity="0"/>
      <path id="Vector-2" data-name="Vector" d="M15,0H5C2,0,0,1.5,0,5v7c0,3.5,2,5,5,5H15c3,0,5-1.5,5-5V5C20,1.5,18,0,15,0ZM1.75,5A3.256,3.256,0,0,1,5,1.75H6.5a.75.75,0,0,1,0,1.5H5A1.758,1.758,0,0,0,3.25,5V6.5a.75.75,0,0,1-1.5,0ZM6.5,15.25H5A3.256,3.256,0,0,1,1.75,12V10.5a.75.75,0,0,1,1.5,0V12A1.758,1.758,0,0,0,5,13.75H6.5a.75.75,0,0,1,0,1.5ZM10,11.5a3,3,0,1,1,3-3A3,3,0,0,1,10,11.5Zm8.25.5A3.256,3.256,0,0,1,15,15.25H13.5a.75.75,0,0,1,0-1.5H15A1.758,1.758,0,0,0,16.75,12V10.5a.75.75,0,0,1,1.5,0Zm0-5.5a.75.75,0,0,1-1.5,0V5A1.758,1.758,0,0,0,15,3.25H13.5a.75.75,0,0,1,0-1.5H15A3.256,3.256,0,0,1,18.25,5Z" transform="translate(622 255.5)" fill="#9e49de"/>
    </g>
  </g>
</svg>
