<?xml version="1.0" encoding="utf-8"?>
<!-- Generator: Adobe Illustrator 25.2.0, SVG Export Plug-In . SVG Version: 6.00 Build 0)  -->
<svg version="1.1" id="Layer_1" xmlns="http://www.w3.org/2000/svg" xmlns:xlink="http://www.w3.org/1999/xlink" x="0px" y="0px"
	 viewBox="0 0 24 24" style="enable-background:new 0 0 24 24;" xml:space="preserve">
<style type="text/css">
	.st0{fill:#055FFC;}
	.st1{fill:none;}
</style>
<g id="vuesax_bold_task-square" transform="translate(-491 -316)">
	<g id="task-square">
		<path id="Vector" class="st0" d="M507.2,318h-8.4c-3.6,0-5.8,2.2-5.8,5.8v8.4c0,3.6,2.2,5.8,5.8,5.8h8.4c3.6,0,5.8-2.2,5.8-5.8
			v-8.4C513,320.2,510.8,318,507.2,318z M501,330.9l-2.2,2.2c-0.1,0.1-0.3,0.2-0.5,0.2c-0.2,0-0.4-0.1-0.5-0.2l-0.8-0.8
			c-0.3-0.3-0.3-0.7,0-1c0,0,0,0,0,0c0.3-0.3,0.8-0.3,1.1,0l0.2,0.2l1.7-1.7c0.3-0.3,0.8-0.3,1.1,0S501.3,330.6,501,330.9
			C501,330.9,501,330.9,501,330.9z M501,323.9l-2.2,2.2c-0.1,0.1-0.3,0.2-0.5,0.2c-0.2,0-0.4-0.1-0.5-0.2l-0.8-0.8
			c-0.3-0.3-0.3-0.7,0-1c0,0,0,0,0,0c0.3-0.3,0.8-0.3,1.1,0l0.2,0.2l1.7-1.7c0.3-0.3,0.8-0.3,1.1,0S501.3,323.6,501,323.9
			C501,323.9,501,323.9,501,323.9z M508.6,332.6h-5.2c-0.4,0-0.8-0.3-0.8-0.8s0.3-0.8,0.8-0.8h5.2c0.4,0,0.8,0.3,0.8,0.8
			S509,332.6,508.6,332.6z M508.6,325.6h-5.2c-0.4,0-0.8-0.3-0.8-0.8s0.3-0.8,0.8-0.8h5.2c0.4,0,0.8,0.3,0.8,0.8
			S509,325.6,508.6,325.6z"/>
		<path id="Vector-2" class="st1" d="M515,340h-24v-24h24V340z"/>
	</g>
</g>
</svg>
