<svg xmlns="http://www.w3.org/2000/svg" width="24" height="24" viewBox="0 0 24 24">
  <g id="vuesax_bold_wallet-minus" data-name="vuesax/bold/wallet-minus" transform="translate(-748 -508)">
    <g id="wallet-minus" transform="translate(748 508)">
      <path id="Vector" d="M5.99.2,3.58,5.814H1.17A5.662,5.662,0,0,0,0,5.924l1-2.4.04-.09.06-.16a1.586,1.586,0,0,1,.08-.18C2.34.4,3.64-.436,5.99.2Z" transform="translate(5.95 2.006)" fill="#008aff"/>
      <path id="Vector-2" data-name="Vector" d="M8.11,5.57l-.02-.01A6.687,6.687,0,0,0,6.26,5.3H0L2.25.07,2.28,0c.14.05.29.12.44.17l2.21.93A6.617,6.617,0,0,1,7.55,2.78c.09.12.17.23.25.36a1.522,1.522,0,0,1,.2.43,1.338,1.338,0,0,1,.09.26A3.5,3.5,0,0,1,8.11,5.57Z" transform="translate(10.62 2.52)" fill="#008aff"/>
      <path id="Vector-3" data-name="Vector" d="M16.05.2A5.057,5.057,0,0,0,14.64,0H4.88A4.777,4.777,0,0,0,2.96.39,4.894,4.894,0,0,0,0,4.88V6.83a5.648,5.648,0,0,0,.05.71q.33,4.77,5.1,5.09a5.394,5.394,0,0,0,.71.05h7.8c3.7,0,5.65-1.76,5.84-5.26.01-.19.02-.39.02-.59V4.88A4.9,4.9,0,0,0,16.05.2ZM12.26,7.43h-5a.75.75,0,0,1,0-1.5h5a.75.75,0,0,1,0,1.5Z" transform="translate(2.24 9.32)" fill="#008aff"/>
      <path id="Vector-4" data-name="Vector" d="M0,0H24V24H0Z" fill="none" opacity="0"/>
    </g>
  </g>
</svg>
