<svg id="local_gas_station_black_24dp" xmlns="http://www.w3.org/2000/svg" width="24" height="24" viewBox="0 0 24 24">
  <path id="Path_137" data-name="Path 137" d="M0,0H24V24H0Z" fill="none"/>
  <path id="Path_138" data-name="Path 138" d="M19.77,7.23l.01-.01L16.59,4.03a.75.75,0,1,0-1.06,1.06l1.58,1.58a2.485,2.485,0,0,0-1.58,2.71,2.536,2.536,0,0,0,2.2,2.11,2.439,2.439,0,0,0,1.27-.2V18.5a1,1,0,0,1-2,0V14a2.006,2.006,0,0,0-2-2H14V5a2.006,2.006,0,0,0-2-2H6A2.006,2.006,0,0,0,4,5V20a1,1,0,0,0,1,1h8a1,1,0,0,0,1-1V13.5h1.5v4.86a2.6,2.6,0,0,0,2.24,2.63A2.5,2.5,0,0,0,20.5,18.5V9A2.5,2.5,0,0,0,19.77,7.23ZM12,10H6V6A1,1,0,0,1,7,5h4a1,1,0,0,1,1,1Zm6,0a1,1,0,1,1,1-1A1,1,0,0,1,18,10Z" fill="#71727d"/>
</svg>
