<?xml version="1.0" encoding="utf-8"?>
<!-- Generator: Adobe Illustrator 25.2.0, SVG Export Plug-In . SVG Version: 6.00 Build 0)  -->
<svg version="1.1" id="Layer_1" xmlns="http://www.w3.org/2000/svg" xmlns:xlink="http://www.w3.org/1999/xlink" x="0px" y="0px"
	 viewBox="0 0 24 24" style="enable-background:new 0 0 24 24;" xml:space="preserve">
<style type="text/css">
	.st0{fill:none;}
	.st1{fill:#055FFC;}
</style>
<g id="vuesax_bold_house" transform="translate(-236 -188)">
	<g id="house">
		<path id="Vector" class="st0" d="M236,186h24v24h-24V186z"/>
		<path id="Vector-2" class="st1" d="M258,207.3h-1V196c0-0.6-0.3-1.2-0.8-1.6l-1.2-1V191c0-0.5-0.4-1-1-1l0,0h-3.4l-1.3-1
			c-0.7-0.6-1.7-0.6-2.5,0l-7,5.4c-0.5,0.4-0.8,1-0.8,1.6l-0.1,11.3H238c-0.4,0-0.8,0.3-0.8,0.8s0.3,0.8,0.8,0.8h20
			c0.4,0,0.8-0.3,0.8-0.8S258.4,207.3,258,207.3z M242.5,198.8v-1.5c0-0.6,0.4-1,1-1h2c0.6,0,1,0.4,1,1v1.5c0,0.6-0.4,1-1,1h-2
			C242.9,199.8,242.5,199.3,242.5,198.8L242.5,198.8L242.5,198.8z M250.5,207.3h-5v-2.8c0-0.8,0.7-1.5,1.5-1.5h2
			c0.8,0,1.5,0.7,1.5,1.5V207.3z M253.5,198.8c0,0.6-0.4,1-1,1h-2c-0.6,0-1-0.4-1-1v-1.5c0-0.6,0.4-1,1-1h2c0.6,0,1,0.4,1,1V198.8z"
			/>
	</g>
</g>
</svg>
