<svg xmlns="http://www.w3.org/2000/svg" width="20" height="20" viewBox="0 0 20 20">
  <g id="bscscan-logo" transform="translate(-219.377 -213.516)">
    <g id="bscscan-logo-circle" transform="translate(219.377 213.516)">
      <path id="Path_1" data-name="Path 1" d="M223.533,223.022a.848.848,0,0,1,.852-.849l1.412,0a.85.85,0,0,1,.849.85v5.349c.159-.047.363-.1.586-.15a.708.708,0,0,0,.545-.69V220.9a.85.85,0,0,1,.849-.85h1.416a.85.85,0,0,1,.849.85v6.158s.354-.144.7-.29a.71.71,0,0,0,.433-.653v-7.341a.85.85,0,0,1,.849-.85h1.415a.85.85,0,0,1,.848.85v6.045a16.6,16.6,0,0,0,3.456-3.249,1.429,1.429,0,0,0,.217-1.333,9.995,9.995,0,1,0-18.1,8.272,1.263,1.263,0,0,0,1.205.626c.268-.024.6-.057,1-.1a.708.708,0,0,0,.627-.7v-5.309" transform="translate(-219.377 -213.516)" fill="#fff"/>
      <path id="Path_2" data-name="Path 2" d="M244.417,278.633a9.993,9.993,0,0,0,15.874-8.1c0-.231-.011-.459-.026-.685-3.652,5.457-10.395,8.008-15.848,8.785" transform="translate(-240.291 -260.549)" fill="#f0b90b"/>
    </g>
  </g>
</svg>
