<?xml version="1.0" encoding="utf-8"?>
<!-- Generator: Adobe Illustrator 25.2.0, SVG Export Plug-In . SVG Version: 6.00 Build 0)  -->
<svg version="1.1" id="Layer_1" xmlns="http://www.w3.org/2000/svg" xmlns:xlink="http://www.w3.org/1999/xlink" x="0px" y="0px"
	 viewBox="0 0 24 24" style="enable-background:new 0 0 24 24;" xml:space="preserve">
<style type="text/css">
	.st0{fill:none;}
	.st1{fill:#055FFC;}
</style>
<g id="vuesax_bold_money-4" transform="translate(-620 -252)">
	<g id="money-4">
		<path id="Vector" class="st0" d="M620,252h24v24h-24V252z"/>
		<path id="Vector-2" class="st1" d="M637,255.5h-10c-3,0-5,1.5-5,5v7c0,3.5,2,5,5,5h10c3,0,5-1.5,5-5v-7
			C642,257,640,255.5,637,255.5z M623.8,260.5c0-1.8,1.5-3.2,3.2-3.2h1.5c0.4,0,0.8,0.3,0.8,0.8s-0.3,0.8-0.8,0.8H627
			c-1,0-1.7,0.8-1.8,1.8v1.5c0,0.4-0.3,0.8-0.8,0.8s-0.8-0.3-0.8-0.8v-1.7H623.8z M628.5,270.8H627c-1.8,0-3.2-1.5-3.2-3.2V266
			c0-0.4,0.3-0.8,0.8-0.8s0.8,0.3,0.8,0.8v1.5c0,1,0.8,1.7,1.8,1.8h1.5c0.4,0,0.8,0.3,0.8,0.8S628.9,270.8,628.5,270.8z M632,267
			c-1.7,0-3-1.3-3-3s1.3-3,3-3s3,1.3,3,3S633.7,267,632,267z M640.2,267.5c0,1.8-1.5,3.2-3.2,3.2h-1.5c-0.4,0-0.8-0.3-0.8-0.8
			s0.3-0.8,0.8-0.8h1.5c1,0,1.7-0.8,1.8-1.8V266c0-0.4,0.3-0.8,0.8-0.8s0.8,0.3,0.8,0.8v1.5H640.2z M640.2,262
			c0,0.4-0.3,0.8-0.8,0.8s-0.8-0.3-0.8-0.8v-1.5c0-1-0.8-1.7-1.8-1.8h-1.5c-0.4,0-0.8-0.3-0.8-0.8s0.3-0.8,0.8-0.8h1.5
			c1.8,0,3.2,1.5,3.2,3.2v1.7H640.2z"/>
	</g>
</g>
</svg>
