<svg xmlns="http://www.w3.org/2000/svg" xmlns:xlink="http://www.w3.org/1999/xlink" width="152.091" height="30" viewBox="0 0 152.091 30">
  <defs>
    <linearGradient id="linear-gradient" x1="0.853" y1="0.142" x2="0.171" y2="0.828" gradientUnits="objectBoundingBox">
      <stop offset="0" stop-color="#0056fd"/>
      <stop offset="0.305" stop-color="#008aff"/>
      <stop offset="0.661" stop-color="#0bf"/>
      <stop offset="1" stop-color="#89f4ab"/>
    </linearGradient>
  </defs>
  <g id="Group_145" data-name="Group 145" transform="translate(-78 -67)">
    <path id="Path_50" data-name="Path 50" d="M40.267,6.973h6.312A8.325,8.325,0,0,1,49.6,7.5a6.1,6.1,0,0,1,2.328,1.572,7.191,7.191,0,0,1,1.488,2.616,11.5,11.5,0,0,1,.528,3.66,11.5,11.5,0,0,1-.528,3.66,7.191,7.191,0,0,1-1.488,2.616A6.1,6.1,0,0,1,49.6,23.2a8.325,8.325,0,0,1-3.024.528H40.267Zm6.312,13.512a3.522,3.522,0,0,0,2.568-.912,3.948,3.948,0,0,0,.936-2.928V14.053a3.948,3.948,0,0,0-.936-2.928,3.522,3.522,0,0,0-2.568-.912h-2.66V20.485Zm15.48,3.528a6.655,6.655,0,0,1-2.568-.468,5.3,5.3,0,0,1-1.908-1.32,5.554,5.554,0,0,1-1.176-2.076,8.841,8.841,0,0,1-.4-2.736,8.915,8.915,0,0,1,.384-2.7,5.745,5.745,0,0,1,1.14-2.076,5.055,5.055,0,0,1,1.86-1.332,6.416,6.416,0,0,1,2.52-.468,6.22,6.22,0,0,1,2.676.528,5.061,5.061,0,0,1,1.832,1.416,5.692,5.692,0,0,1,1.032,2.052,9.068,9.068,0,0,1,.324,2.436v1.056H59.683v.19a2.78,2.78,0,0,0,.672,1.964,2.748,2.748,0,0,0,2.112.726,3.316,3.316,0,0,0,1.8-.44,7.076,7.076,0,0,0,1.3-1.059l1.772,2.213a5.6,5.6,0,0,1-2.2,1.54,8.108,8.108,0,0,1-3.08.554m-.072-10.56a2.117,2.117,0,0,0-1.692.708,2.784,2.784,0,0,0-.612,1.884v.192H64.1v-.212a3.085,3.085,0,0,0-.516-1.86,1.842,1.842,0,0,0-1.6-.712m6.7,10.272,4.152-6.408-4.1-6.192h4.032l2.352,3.96h.1l2.28-3.96h3.744l-4.184,6.312,4.2,6.288H77.227l-2.424-4.1h-.1l-2.324,4.1Z" transform="translate(78 67)" fill="#89f4ab"/>
    <path id="Path_51" data-name="Path 51" d="M91.035,24.021a8.306,8.306,0,0,1-3.072-.54,6.1,6.1,0,0,1-2.328-1.608,7.4,7.4,0,0,1-1.488-2.664,11.915,11.915,0,0,1-.528-3.732,12.249,12.249,0,0,1,.528-3.756,7.871,7.871,0,0,1,1.488-2.76,6.205,6.205,0,0,1,2.328-1.692,7.848,7.848,0,0,1,3.072-.576,7.114,7.114,0,0,1,3.84.948A6.535,6.535,0,0,1,97.3,10.633l-3.144,1.632a3.745,3.745,0,0,0-1.044-1.692,3.013,3.013,0,0,0-2.076-.64,3.356,3.356,0,0,0-2.58,1.044,4.3,4.3,0,0,0-.972,3.036V16.7a4.3,4.3,0,0,0,.972,3.032,3.356,3.356,0,0,0,2.58,1.044,3.064,3.064,0,0,0,2.148-.732,4.452,4.452,0,0,0,1.188-1.764l2.976,1.732a7.442,7.442,0,0,1-2.46,2.964,6.665,6.665,0,0,1-3.852,1.044M99.7,5.973h3.552v7.3h.144a3.86,3.86,0,0,1,1.176-1.7,4.036,4.036,0,0,1,5.268.58,5.959,5.959,0,0,1,1,3.7v7.88h-3.556V16.125a3.365,3.365,0,0,0-.384-1.812,1.51,1.51,0,0,0-1.368-.588,3.264,3.264,0,0,0-.84.108,2.129,2.129,0,0,0-.732.348,1.809,1.809,0,0,0-.516.588,1.638,1.638,0,0,0-.192.8v8.164H99.7Zm19.56,18.048a6.655,6.655,0,0,1-2.568-.468,5.3,5.3,0,0,1-1.908-1.32,5.554,5.554,0,0,1-1.176-2.076,8.841,8.841,0,0,1-.4-2.736,8.915,8.915,0,0,1,.384-2.7,5.745,5.745,0,0,1,1.14-2.076,5.055,5.055,0,0,1,1.86-1.332,6.415,6.415,0,0,1,2.52-.468,6.22,6.22,0,0,1,2.676.528,5.061,5.061,0,0,1,1.832,1.416,5.692,5.692,0,0,1,1.032,2.052,9.068,9.068,0,0,1,.324,2.436v1.056h-8.092v.19a2.78,2.78,0,0,0,.672,1.964,2.752,2.752,0,0,0,2.112.726,3.316,3.316,0,0,0,1.8-.44,7.076,7.076,0,0,0,1.3-1.059l1.772,2.213a5.6,5.6,0,0,1-2.2,1.54,8.108,8.108,0,0,1-3.08.554m-.072-10.56a2.117,2.117,0,0,0-1.692.708,2.784,2.784,0,0,0-.612,1.884v.192H121.3v-.212a3.085,3.085,0,0,0-.516-1.86,1.841,1.841,0,0,0-1.6-.712m13.392,10.56a6.415,6.415,0,0,1-2.52-.468,5.01,5.01,0,0,1-1.848-1.32,5.7,5.7,0,0,1-1.128-2.076,9.116,9.116,0,0,1-.384-2.736,9.007,9.007,0,0,1,.384-2.724,5.851,5.851,0,0,1,1.128-2.076,4.826,4.826,0,0,1,1.848-1.32,6.562,6.562,0,0,1,2.52-.456,5.607,5.607,0,0,1,3.2.864,4.728,4.728,0,0,1,1.84,2.424l-2.88,1.248a2.409,2.409,0,0,0-.7-1.224,2.032,2.032,0,0,0-1.464-.5,1.942,1.942,0,0,0-1.632.708,3.022,3.022,0,0,0-.552,1.908v2.352a2.972,2.972,0,0,0,.552,1.9,1.957,1.957,0,0,0,1.632.7,2.168,2.168,0,0,0,1.524-.516,3.02,3.02,0,0,0,.828-1.356l2.76,1.2a4.913,4.913,0,0,1-1.928,2.628,5.762,5.762,0,0,1-3.18.84M139.9,5.973h3.552V16.461h.144l1.56-2.328,2.52-3h3.936l-4.2,4.824,4.68,7.776h-4.224l-2.832-5.328-1.584,1.776v3.552H139.9Z" transform="translate(78 67)" fill="#fff"/>
    <path id="Path_52" data-name="Path 52" d="M14.45,24.608,3.842,14l3.536-3.536,7.074,7.075L26.566,5.449A14.974,14.974,0,0,0,15,0H0V30H15A14.963,14.963,0,0,0,29.115,9.967Z" transform="translate(78 67)" fill="url(#linear-gradient)"/>
  </g>
</svg>
