<?xml version="1.0" encoding="utf-8"?>
<!-- Generator: Adobe Illustrator 25.2.0, SVG Export Plug-In . SVG Version: 6.00 Build 0)  -->
<svg version="1.1" id="Layer_1" xmlns="http://www.w3.org/2000/svg" xmlns:xlink="http://www.w3.org/1999/xlink" x="0px" y="0px"
	 viewBox="0 0 24 24" style="enable-background:new 0 0 24 24;" xml:space="preserve">
<style type="text/css">
	.st0{fill:#055FFC;}
	.st1{fill:none;}
</style>
<g id="vuesax_bold_hashtag" transform="translate(-748 -188)">
	<g id="hashtag">
		<path id="Vector" class="st0" d="M756,198.1v1.2h3.3v-3.2h-1.2C757,196,756.1,197,756,198.1z"/>
		<path id="Vector-2" class="st0" d="M756,201.9c0,1.2,0.9,2.1,2.1,2.1h1.2v-3.2H756V201.9z"/>
		<path id="Vector-3" class="st0" d="M760.7,203.9h1.2c1.2,0,2.1-0.9,2.1-2.1v-1.2h-3.2V203.9z"/>
		<path id="Vector-4" class="st0" d="M764.2,190h-8.4c-3.6,0-5.8,2.2-5.8,5.8v8.4c0,3.7,2.2,5.8,5.8,5.8h8.4c3.6,0,5.8-2.2,5.8-5.8
			v-8.4C770,192.2,767.8,190,764.2,190z M765.3,201.9c0,1.9-1.6,3.5-3.5,3.5h-3.7c-1.9,0-3.5-1.6-3.5-3.5v-3.7
			c0-1.9,1.6-3.5,3.5-3.5h3.7c1.9,0,3.5,1.6,3.5,3.5V201.9z"/>
		<path id="Vector-5" class="st0" d="M761.9,196.1h-1.2v3.3h3.3v-1.2C764,197,763,196.1,761.9,196.1z"/>
		<path id="Vector-6" class="st1" d="M772,212h-24v-24h24V212z"/>
	</g>
</g>
</svg>
