<svg xmlns="http://www.w3.org/2000/svg" width="16" height="16" viewBox="0 0 16 16">
  <g id="vuesax_bold_money-4" data-name="vuesax/bold/money-4" transform="translate(-620 -252)" opacity="0.4">
    <g id="money-4" transform="translate(620 252)">
      <path id="Vector" d="M0,0H16V16H0Z" fill="none" opacity="0"/>
      <path id="Vector-2" data-name="Vector" d="M10,0H3.333A2.99,2.99,0,0,0,0,3.333V8a2.99,2.99,0,0,0,3.333,3.333H10A2.99,2.99,0,0,0,13.333,8V3.333A2.99,2.99,0,0,0,10,0ZM1.167,3.333A2.171,2.171,0,0,1,3.333,1.167h1a.5.5,0,0,1,0,1h-1A1.172,1.172,0,0,0,2.167,3.333v1a.5.5,0,0,1-1,0Zm3.167,6.833h-1A2.171,2.171,0,0,1,1.167,8V7a.5.5,0,0,1,1,0V8A1.172,1.172,0,0,0,3.333,9.167h1a.5.5,0,0,1,0,1Zm2.333-2.5a2,2,0,1,1,2-2A2,2,0,0,1,6.667,7.667Zm5.5.333A2.171,2.171,0,0,1,10,10.167H9a.5.5,0,0,1,0-1h1A1.172,1.172,0,0,0,11.167,8V7a.5.5,0,0,1,1,0Zm0-3.667a.5.5,0,1,1-1,0v-1A1.172,1.172,0,0,0,10,2.167H9a.5.5,0,0,1,0-1h1a2.171,2.171,0,0,1,2.167,2.167Z" transform="translate(1.333 2.333)" fill="#fff"/>
    </g>
  </g>
</svg>
