<?xml version="1.0" encoding="utf-8"?>
<!-- Generator: Adobe Illustrator 25.2.0, SVG Export Plug-In . SVG Version: 6.00 Build 0)  -->
<svg version="1.1" id="Layer_1" xmlns="http://www.w3.org/2000/svg" xmlns:xlink="http://www.w3.org/1999/xlink" x="0px" y="0px"
	 viewBox="0 0 24 24" style="enable-background:new 0 0 24 24;" xml:space="preserve">
<style type="text/css">
	.st0{fill:#055FFC;}
	.st1{fill:none;}
</style>
<g id="vuesax_bold_wallet-money" transform="translate(-108 -380)">
	<g id="wallet-money">
		<path id="Vector" class="st0" d="M129,396.1c-0.1,2.6-2.3,4.6-4.9,4.4c0,0,0,0,0,0h-9c-2.8,0-5-2.2-5-5v-7
			c-0.2-2.5,1.7-4.7,4.2-4.9c0.3,0,0.5-0.1,0.8-0.1h9c0.3,0,0.5,0,0.8,0c2.3,0.2,4.1,2.1,4.2,4.4c0,0.3-0.2,0.5-0.5,0.5c0,0,0,0,0,0
			h-1.6c-0.9,0-1.8,0.4-2.5,1c-0.8,0.7-1.1,1.8-1.1,2.8c0.2,1.9,1.8,3.3,3.7,3.2h1.4C128.7,395.5,129,395.8,129,396.1
			C129,396,129,396.1,129,396.1z"/>
		<path id="Vector-2" class="st1" d="M132,404h-24v-24h24V404z"/>
		<path id="Vector-3" class="st0" d="M130,391v2.1c0,0.6-0.4,1-1,1h-2c-1.1,0-2-0.8-2.2-1.9c-0.1-0.6,0.2-1.2,0.6-1.6
			c0.4-0.4,0.9-0.6,1.4-0.6h2.1C129.6,390,130,390.4,130,391z"/>
	</g>
</g>
</svg>
