<?xml version="1.0" encoding="utf-8"?>
<!-- Generator: Adobe Illustrator 25.2.0, SVG Export Plug-In . SVG Version: 6.00 Build 0)  -->
<svg version="1.1" id="Layer_1" xmlns="http://www.w3.org/2000/svg" xmlns:xlink="http://www.w3.org/1999/xlink" x="0px" y="0px"
	 viewBox="0 0 13.5 13.5" style="enable-background:new 0 0 13.5 13.5;" xml:space="preserve">
<style type="text/css">
	.st0{fill:#FFFFFF;}
	.st1{fill:none;}
</style>
<g id="vuesax_bold_monitor">
	<g id="monitor">
		<path id="Vector" class="st0" d="M9.9,1.1H3.6c-1.4,0-2.5,1.1-2.5,2.5v3.8c0,1.4,1.1,2.5,2.5,2.5h2.2c0.3,0,0.6,0.3,0.6,0.6V11
			c0,0.3-0.3,0.6-0.6,0.6H4.4C4.2,11.5,4,11.7,4,12c0,0.2,0.2,0.4,0.4,0.4h4.7c0.2,0,0.4-0.2,0.4-0.4c0-0.2-0.2-0.4-0.4-0.4H7.7
			c-0.3,0-0.6-0.3-0.6-0.6v-0.5c0-0.3,0.3-0.6,0.6-0.6h2.1c1.4,0,2.5-1.1,2.5-2.5l0,0V3.6C12.4,2.2,11.2,1.1,9.9,1.1z"/>
		<path id="Vector-2" class="st1" d="M13.5,13.5H0V0h13.5V13.5z"/>
	</g>
</g>
</svg>
