<?xml version="1.0" encoding="utf-8"?>
<!-- Generator: Adobe Illustrator 25.2.0, SVG Export Plug-In . SVG Version: 6.00 Build 0)  -->
<svg version="1.1" id="Layer_1" xmlns="http://www.w3.org/2000/svg" xmlns:xlink="http://www.w3.org/1999/xlink" x="0px" y="0px"
	 viewBox="0 0 13.5 11.2" style="enable-background:new 0 0 13.5 11.2;" xml:space="preserve">
<style type="text/css">
	.st0{fill:#FFFFFF;enable-background:new    ;}
</style>
<path class="st0" d="M13.3,0.1C13.2,0,13,0,12.9,0C10.5,0.9,3.3,3.6,0.3,4.7C0.1,4.8-0.1,5.1,0,5.3c0.1,0.1,0.2,0.2,0.3,0.3
	c1.3,0.4,3.1,1,3.1,1S4.2,9,4.7,10.3c0.1,0.2,0.2,0.3,0.3,0.3c0.2,0,0.3,0,0.5-0.1l1.7-1.6c0,0,2,1.5,3.1,2.3l0,0
	c0.2,0.1,0.4,0.2,0.6,0.1c0.2-0.1,0.4-0.3,0.4-0.5c0.5-2.3,1.7-8.1,2.1-10.2C13.5,0.4,13.5,0.2,13.3,0.1z M11,2.2L5.3,7.4l-0.2,2
	l-1-3.2L10.8,2C10.9,2,11,2,11,2C11.1,2.1,11.1,2.2,11,2.2z"/>
</svg>
