<?xml version="1.0" encoding="utf-8"?>
<!-- Generator: Adobe Illustrator 25.2.0, SVG Export Plug-In . SVG Version: 6.00 Build 0)  -->
<svg version="1.1" id="Layer_1" xmlns="http://www.w3.org/2000/svg" xmlns:xlink="http://www.w3.org/1999/xlink" x="0px" y="0px"
	 viewBox="0 0 13.5 10.7" style="enable-background:new 0 0 13.5 10.7;" xml:space="preserve">
<style type="text/css">
	.st0{fill:#FFFFFF;enable-background:new    ;}
</style>
<path id="iconmonstr-medium-1" class="st0" d="M1.6,2.2c0-0.2,0-0.3-0.2-0.4L0.2,0.2V0h3.9l3,6.6L9.8,0h3.7v0.2l-1.1,1
	c-0.1,0.1-0.1,0.2-0.1,0.3v7.6c0,0.1,0,0.2,0.1,0.3l1.1,1v0.2H8.2v-0.2l1.1-1.1c0.1-0.1,0.1-0.1,0.1-0.3V3l-3,7.7H5.9L2.4,3v5.2
	c0,0.2,0,0.4,0.2,0.6L4,10.5v0.2H0v-0.2l1.4-1.7c0.2-0.2,0.2-0.4,0.2-0.6L1.6,2.2L1.6,2.2z"/>
</svg>
