<?xml version="1.0" encoding="utf-8"?>
<!-- Generator: Adobe Illustrator 25.2.0, SVG Export Plug-In . SVG Version: 6.00 Build 0)  -->
<svg version="1.1" id="Layer_1" xmlns="http://www.w3.org/2000/svg" xmlns:xlink="http://www.w3.org/1999/xlink" x="0px" y="0px"
	 viewBox="0 0 13.5 9.7" style="enable-background:new 0 0 13.5 9.7;" xml:space="preserve">
<style type="text/css">
	.st0{fill:#FFFFFF;enable-background:new    ;}
</style>
<path class="st0" d="M11.8,1.2C10.9,0.5,9.8,0.1,8.6,0L8.4,0.2c1.1,0.3,2,0.8,2.9,1.5c-1.1-0.6-2.3-1-3.5-1.1C7,0.5,6.3,0.5,5.5,0.6
	l-0.2,0C4.4,0.7,3.5,0.9,2.7,1.3C2.2,1.5,2,1.7,2,1.7c0.9-0.7,1.9-1.2,3-1.5L4.9,0C3.7,0.1,2.6,0.5,1.7,1.2C0.6,3.3,0,5.6,0,8
	c0.8,1.1,2.1,1.8,3.5,1.8c0,0,0.4-0.5,0.8-1c-0.8-0.2-1.5-0.7-2-1.4l0.3,0.2l0,0l0,0l0,0l0,0C3,7.8,3.3,8,3.6,8.1
	c0.6,0.2,1.1,0.4,1.7,0.5c1,0.2,2,0.2,3,0C8.9,8.5,9.4,8.3,10,8.1c0.5-0.2,0.9-0.4,1.3-0.7C10.8,8.1,10,8.6,9.2,8.8
	C9.5,9.2,10,9.7,10,9.7v0c1.4,0,2.7-0.6,3.5-1.8C13.5,5.6,12.9,3.3,11.8,1.2z M4.6,6.9C4,6.8,3.5,6.3,3.4,5.7C3.4,5,3.9,4.4,4.6,4.3
	c0,0,0,0,0,0c0.7,0,1.2,0.6,1.2,1.3c0,0,0,0,0,0C5.8,6.3,5.3,6.8,4.6,6.9z M10,5.7C9.9,6.4,9.3,6.9,8.6,6.9C7.9,6.8,7.4,6.2,7.4,5.5
	c0.1-0.7,0.7-1.2,1.4-1.2c0,0,0,0,0,0h0c0,0,0,0,0,0c0,0,0,0,0,0c0.7,0,1.2,0.6,1.2,1.3C10,5.6,10,5.7,10,5.7z"/>
</svg>
