<?xml version="1.0" encoding="utf-8"?>
<!-- Generator: Adobe Illustrator 25.2.0, SVG Export Plug-In . SVG Version: 6.00 Build 0)  -->
<svg version="1.1" id="Layer_1" xmlns="http://www.w3.org/2000/svg" xmlns:xlink="http://www.w3.org/1999/xlink" x="0px" y="0px"
	 viewBox="0 0 13.5 11" style="enable-background:new 0 0 13.5 11;" xml:space="preserve">
<style type="text/css">
	.st0{fill:#FFFFFF;enable-background:new    ;}
</style>
<path id="iconmonstr-twitter-1" class="st0" d="M13.5,1.3c-0.5,0.2-1,0.4-1.6,0.4c0.6-0.3,1-0.9,1.2-1.5c-0.5,0.3-1.1,0.5-1.8,0.7
	c-1-1.1-2.8-1.2-3.9-0.1c-0.7,0.7-1,1.7-0.8,2.7C4.4,3.3,2.3,2.2,0.9,0.5C0.2,1.8,0.6,3.4,1.8,4.2c-0.4,0-0.9-0.1-1.3-0.3
	c0,1.3,0.9,2.5,2.2,2.8c-0.4,0.1-0.8,0.1-1.3,0c0.4,1.1,1.4,1.9,2.6,1.9C2.9,9.5,1.5,9.9,0,9.7C1.3,10.5,2.7,11,4.2,11
	c4.3,0,7.9-3.5,7.9-7.8c0-0.2,0-0.3,0-0.5C12.7,2.3,13.1,1.9,13.5,1.3z"/>
</svg>
