<svg xmlns="http://www.w3.org/2000/svg" width="14" height="14" viewBox="0 0 14 14">
  <path id="icons8-share" d="M11.308,0A2.692,2.692,0,0,0,8.615,2.692c0,.046.015.088.017.135L4.409,4.947a2.649,2.649,0,0,0-1.716-.639,2.692,2.692,0,1,0,0,5.385,2.649,2.649,0,0,0,1.716-.639l4.224,2.12c0,.046-.017.088-.017.135a2.692,2.692,0,1,0,2.692-2.692,2.649,2.649,0,0,0-1.716.639L5.368,7.135c0-.046.017-.088.017-.135s-.015-.088-.017-.135l4.224-2.12a2.649,2.649,0,0,0,1.716.639,2.692,2.692,0,1,0,0-5.385Z" fill="#4b4d5c"/>
</svg>
