<?xml version="1.0" encoding="utf-8"?>
<!-- Generator: Adobe Illustrator 25.2.0, SVG Export Plug-In . SVG Version: 6.00 Build 0)  -->
<svg version="1.1" id="Layer_1" xmlns="http://www.w3.org/2000/svg" xmlns:xlink="http://www.w3.org/1999/xlink" x="0px" y="0px"
	 viewBox="0 0 24 24" style="enable-background:new 0 0 24 24;" xml:space="preserve">
<style type="text/css">
	.st0{fill:#055FFC;}
	.st1{fill:none;}
</style>
<g id="vuesax_bold_status-up" transform="translate(-236 -252)">
	<g id="status-up">
		<path id="Vector" class="st0" d="M252.2,254h-8.4c-3.6,0-5.8,2.2-5.8,5.8v8.4c0,3.6,2.2,5.8,5.8,5.8h8.4c3.6,0,5.8-2.2,5.8-5.8
			v-8.4C258,256.2,255.8,254,252.2,254z M243.6,270.1c0,0.4-0.3,0.8-0.8,0.8s-0.8-0.3-0.8-0.8v-2.1c0-0.4,0.3-0.8,0.8-0.8
			s0.8,0.3,0.8,0.8l0,0V270.1z M248.8,270.1c0,0.4-0.3,0.8-0.8,0.8s-0.8-0.3-0.8-0.8V266c0-0.4,0.3-0.8,0.8-0.8s0.8,0.3,0.8,0.8
			V270.1z M253.9,270.1c0,0.4-0.3,0.8-0.8,0.8s-0.8-0.3-0.8-0.8v-6.2c0-0.4,0.3-0.8,0.8-0.8s0.8,0.3,0.8,0.8V270.1z M253.9,260.8
			c0,0.4-0.3,0.8-0.8,0.8s-0.8-0.3-0.8-0.8v-1c-2.5,2.6-5.8,4.5-9.3,5.4c-0.1,0-0.1,0-0.2,0c-0.3,0-0.6-0.2-0.7-0.6
			c-0.1-0.4,0.1-0.8,0.5-0.9c0,0,0,0,0,0c3.3-0.8,6.4-2.6,8.8-5.1h-1.2c-0.4,0-0.8-0.3-0.8-0.8s0.3-0.8,0.8-0.8h2.9c0,0,0.1,0,0.1,0
			c0.1,0,0.1,0,0.1,0c0,0,0.1,0,0.1,0.1c0,0,0.1,0,0.1,0c0,0,0,0,0,0c0,0,0.1,0.1,0.1,0.1c0,0,0.1,0.1,0.1,0.1c0,0,0,0.1,0,0.1
			c0,0.1,0,0.1,0,0.2c0,0,0,0,0,0L253.9,260.8L253.9,260.8z"/>
		<path id="Vector-2" class="st1" d="M260,276h-24v-24h24V276z"/>
	</g>
</g>
</svg>
