<svg xmlns="http://www.w3.org/2000/svg" width="21" height="21" viewBox="0 0 21 21">
  <g id="vuesax_bold_wallet-3" data-name="vuesax/bold/wallet-3" transform="translate(-364 -380)">
    <g id="wallet-3" transform="translate(364 380)">
      <path id="Vector" d="M0,0H21V21H0Z" transform="translate(21 21) rotate(180)" fill="none" opacity="0"/>
      <path id="Vector-2" data-name="Vector" d="M4.488.892v1.8a.9.9,0,0,1-.9.892H1.9A1.866,1.866,0,0,1,.008,1.951,1.757,1.757,0,0,1,.533.525,1.744,1.744,0,0,1,1.793,0H3.587A.9.9,0,0,1,4.488.892Z" transform="translate(14.762 10.15)" fill="#008aff"/>
      <path id="Vector-3" data-name="Vector" d="M11.708,6.834a3.1,3.1,0,0,1,.919-2.476,3.047,3.047,0,0,1,2.179-.9h.5a.4.4,0,0,0,.411-.446A3.507,3.507,0,0,0,12.25,0H3.5A3.5,3.5,0,0,0,0,3.5V9.625a3.5,3.5,0,0,0,3.5,3.5h8.75a3.5,3.5,0,0,0,3.465-3.01.4.4,0,0,0-.411-.446H14.91A3.182,3.182,0,0,1,11.708,6.834Zm-2.083-1.8H4.375a.656.656,0,0,1,0-1.312h5.25a.656.656,0,0,1,0,1.313Z" transform="translate(1.75 5.381)" fill="#008aff"/>
      <path id="Vector-4" data-name="Vector" d="M10.421.989a.354.354,0,0,1-.306.586H3.264a4.759,4.759,0,0,0-2.59.761c-.341.219-.805-.017-.639-.394A3.215,3.215,0,0,1,2.992,0H7.91A3.414,3.414,0,0,1,10.421.989Z" transform="translate(2.013 2.494)" fill="#008aff"/>
    </g>
  </g>
</svg>
