<?xml version="1.0" encoding="utf-8"?>
<!-- Generator: Adobe Illustrator 25.2.0, SVG Export Plug-In . SVG Version: 6.00 Build 0)  -->
<svg version="1.1" id="Layer_1" xmlns="http://www.w3.org/2000/svg" xmlns:xlink="http://www.w3.org/1999/xlink" x="0px" y="0px"
	 viewBox="0 0 24 24" style="enable-background:new 0 0 24 24;" xml:space="preserve">
<style type="text/css">
	.st0{fill:none;}
	.st1{fill:#055FFC;}
</style>
<g id="vuesax_bold_user-octagon" transform="translate(-620 -188)">
	<g id="user-octagon">
		<path id="Vector" class="st0" d="M620,188h24v24h-24V188z"/>
		<path id="Vector-2" class="st1" d="M639.5,193.9l-5.9-3.4c-1-0.6-2.2-0.6-3.2,0l-5.9,3.4c-1,0.6-1.6,1.6-1.6,2.7v6.8
			c0,1.1,0.6,2.2,1.6,2.7l5.9,3.4c1,0.6,2.2,0.6,3.1,0l5.9-3.4c1-0.6,1.6-1.6,1.6-2.7v-6.8C641.1,195.5,640.5,194.4,639.5,193.9z
			 M632,195.3c1.3,0,2.3,1,2.3,2.3s-1,2.3-2.3,2.3c-1.3,0-2.3-1-2.3-2.3l0,0C629.7,196.4,630.7,195.3,632,195.3
			C632,195.3,632,195.3,632,195.3z M634.7,204.7h-5.4c-0.6,0-1-0.4-1-1c0-0.2,0.1-0.4,0.2-0.6c0.8-1.1,2.1-1.7,3.5-1.7
			c1.4,0,2.7,0.6,3.5,1.7c0.3,0.5,0.2,1.1-0.3,1.4C635.1,204.6,634.9,204.7,634.7,204.7z"/>
	</g>
</g>
</svg>
