<svg xmlns="http://www.w3.org/2000/svg" width="20" height="20" viewBox="0 0 20 20">
  <g id="vuesax_bold_verify" data-name="vuesax/bold/verify" transform="translate(-748 -444)">
    <g id="verify" transform="translate(748 444)">
      <path id="Vector" d="M16.3,7.285,15.163,5.969a1.847,1.847,0,0,1-.392-1.05V3.5a1.615,1.615,0,0,0-1.608-1.608H11.746A1.869,1.869,0,0,1,10.7,1.5L9.379.369a1.679,1.679,0,0,0-2.1,0L5.971,1.51a1.922,1.922,0,0,1-1.05.383H3.479A1.615,1.615,0,0,0,1.871,3.5V4.927a1.9,1.9,0,0,1-.383,1.042L.362,7.294a1.678,1.678,0,0,0,0,2.083L1.487,10.7a1.9,1.9,0,0,1,.383,1.042v1.425a1.615,1.615,0,0,0,1.608,1.608H4.921a1.869,1.869,0,0,1,1.05.392L7.287,16.3a1.679,1.679,0,0,0,2.1,0L10.7,15.169a1.847,1.847,0,0,1,1.05-.392h1.417a1.615,1.615,0,0,0,1.608-1.608V11.752a1.869,1.869,0,0,1,.392-1.05L16.3,9.385A1.691,1.691,0,0,0,16.3,7.285ZM11.8,6.76,7.771,10.785a.624.624,0,0,1-.883,0L4.871,8.769a.625.625,0,0,1,.883-.883L7.329,9.46l3.583-3.583a.625.625,0,1,1,.883.883Z" transform="translate(1.671 1.665)" fill="#00c10d"/>
      <path id="Vector-2" data-name="Vector" d="M0,0H20V20H0Z" transform="translate(20 20) rotate(180)" fill="none" opacity="0"/>
    </g>
  </g>
</svg>
